#!OML:ASF C:\Vicon Data\Big\jianyuan-13\jianyuan\Session 1\Capture.male.ASF
:FULLY-SPECIFIED
:DEGREES
139
root -7.155923 17.279999 -14.645841 8.399807 10.309627 0.793086
lowerback -13.411325 2.349055 -1.639115 
upperback 2.170253 3.526340 -1.133658 
thorax 9.862581 1.634488 0.467576 
lowerneck -0.457653 -3.764089 1.915795 
upperneck 13.340574 -4.956306 -1.616038 
head 4.374959 -2.413739 -1.068110 
rclavicle 0.000000 0.000000 
rhumerus -36.533595 -14.079974 -85.020132 
rradius 41.324302 
rwrist 20.858126 
rhand -18.896436 -19.022129 
rfingers 0.000000 
rthumb 7.405090 -48.872510 
lclavicle 0.000000 0.000000 
lhumerus -40.698622 33.055373 66.132568 
lradius 27.003823 
lwrist -55.792342 
lhand -18.807845 -0.588727 
lfingers 0.000000 
lthumb 7.490653 29.258654 
rfemur 2.170984 5.572395 24.179958 
rtibia 26.038483 
rfoot -26.956886 -6.693502 
rtoes -29.924052 
lfemur -32.619991 -3.775910 -17.252285 
ltibia 21.283522 
lfoot 0.560258 6.102520 
ltoes -30.829899 
140
root -7.133938 17.280831 -14.611378 8.375080 10.365071 0.817391
lowerback -13.333324 2.338727 -1.643939 
upperback 2.188985 3.514450 -1.159770 
thorax 9.839542 1.629883 0.436605 
lowerneck -0.360133 -3.787944 1.944311 
upperneck 13.219225 -4.987213 -1.618472 
head 4.310052 -2.428575 -1.069306 
rclavicle 0.000000 0.000000 
rhumerus -36.521827 -14.067508 -85.060402 
rradius 41.350825 
rwrist 20.781848 
rhand -18.946813 -19.187340 
rfingers 0.000000 
rthumb 7.356488 -49.039455 
lclavicle 0.000000 0.000000 
lhumerus -40.738534 33.188562 66.042856 
lradius 26.946758 
lwrist -55.954893 
lhand -18.746043 -0.613889 
lfingers 0.000000 
lthumb 7.550279 29.231322 
rfemur 2.233367 5.528275 24.078979 
rtibia 26.302898 
rfoot -26.846052 -6.499160 
rtoes -29.555036 
lfemur -32.614143 -3.839628 -17.366797 
ltibia 21.561063 
lfoot 0.493509 5.955739 
ltoes -30.546099 
141
root -7.112197 17.280669 -14.576974 8.357142 10.432352 0.810038
lowerback -13.248021 2.334011 -1.650422 
upperback 2.191625 3.507013 -1.158975 
thorax 9.792488 1.626843 0.435684 
lowerneck -0.269978 -3.824624 1.960436 
upperneck 13.115583 -5.033730 -1.630745 
head 4.252977 -2.452007 -1.072747 
rclavicle 0.000000 0.000000 
rhumerus -36.539942 -14.016809 -85.065848 
rradius 41.396836 
rwrist 20.681595 
rhand -18.936805 -19.205922 
rfingers 0.000000 
rthumb 7.366155 -49.057722 
lclavicle 0.000000 0.000000 
lhumerus -40.724041 33.134316 66.106898 
lradius 26.922562 
lwrist -55.710800 
lhand -18.600050 -0.604206 
lfingers 0.000000 
lthumb 7.691194 29.235912 
rfemur 2.250568 5.447305 24.045502 
rtibia 26.584094 
rfoot -26.645119 -6.542084 
rtoes -29.990744 
lfemur -32.624080 -3.861232 -17.455565 
ltibia 21.850714 
lfoot 0.370143 5.722842 
ltoes -30.476500 
142
root -7.090601 17.281575 -14.541989 8.389755 10.513487 0.818550
lowerback -13.210473 2.322460 -1.687731 
upperback 2.177765 3.496315 -1.157839 
thorax 9.753237 1.620289 0.453521 
lowerneck -0.167514 -3.849803 1.959019 
upperneck 12.999425 -5.068680 -1.598751 
head 4.191014 -2.468678 -1.057362 
rclavicle 0.000000 0.000000 
rhumerus -36.577771 -14.052629 -85.021653 
rradius 41.433716 
rwrist 20.734218 
rhand -18.936226 -19.085942 
rfingers 0.000000 
rthumb 7.366697 -48.937692 
lclavicle 0.000000 0.000000 
lhumerus -40.731271 33.110835 66.145502 
lradius 26.858247 
lwrist -55.721008 
lhand -18.581543 -0.633713 
lfingers 0.000000 
lthumb 7.709083 29.205756 
rfemur 2.185146 5.431946 24.008998 
rtibia 26.887545 
rfoot -26.419321 -6.661756 
rtoes -30.443011 
lfemur -32.683288 -3.893212 -17.549806 
ltibia 22.146348 
lfoot 0.219021 5.493590 
ltoes -30.413514 
143
root -7.068040 17.282327 -14.505263 8.427933 10.619595 0.859738
lowerback -13.217768 2.271463 -1.763028 
upperback 2.186340 3.439819 -1.143504 
thorax 9.762381 1.588249 0.499702 
lowerneck -0.060118 -3.800102 1.929260 
upperneck 12.850070 -5.004729 -1.539698 
head 4.119720 -2.437002 -1.024029 
rclavicle 0.000000 0.000000 
rhumerus -36.574980 -13.978975 -85.003581 
rradius 41.461687 
rwrist 20.724158 
rhand -18.955102 -18.998896 
rfingers 0.000000 
rthumb 7.348507 -48.851278 
lclavicle 0.000000 0.000000 
lhumerus -40.767324 33.241299 66.140828 
lradius 26.735214 
lwrist -55.962181 
lhand -18.776478 -0.513558 
lfingers 0.000000 
lthumb 7.520883 29.332752 
rfemur 2.081951 5.185284 23.866214 
rtibia 27.220057 
rfoot -26.139066 -6.553386 
rtoes -30.862712 
lfemur -32.739162 -3.978418 -17.665296 
ltibia 22.446018 
lfoot 0.042745 5.320395 
ltoes -30.248243 
144
root -7.046077 17.285440 -14.469404 8.419831 10.687352 0.940676
lowerback -13.186094 2.186472 -1.881842 
upperback 2.234710 3.342012 -1.095636 
thorax 9.788812 1.532471 0.596728 
lowerneck 0.060382 -3.741611 1.732921 
upperneck 12.686226 -4.917166 -1.526805 
head 4.044231 -2.403547 -0.976020 
rclavicle 0.000000 0.000000 
rhumerus -36.449223 -13.701473 -84.981478 
rradius 41.377664 
rwrist 20.504952 
rhand -19.085690 -18.979988 
rfingers 0.000000 
rthumb 7.222398 -48.836754 
lclavicle 0.000000 0.000000 
lhumerus -40.858571 33.557435 66.160416 
lradius 26.652827 
lwrist -56.144604 
lhand -18.987317 -0.338292 
lfingers 0.000000 
lthumb 7.317357 29.515154 
rfemur 2.004669 4.970104 23.692014 
rtibia 27.600729 
rfoot -25.796885 -6.525545 
rtoes -31.556531 
lfemur -32.707592 -4.120198 -17.795762 
ltibia 22.713967 
lfoot -0.161626 5.243521 
ltoes -30.392512 
